<?xml version="1.0" encoding="UTF-8"?>
<svg width="31px" height="41px" viewBox="0 0 31 41" version="1.1" xmlns="http://www.w3.org/2000/svg" xmlns:xlink="http://www.w3.org/1999/xlink">
    <!-- Generator: Sketch 49 (51002) - http://www.bohemiancoding.com/sketch -->
    <title>Clip</title>
    <desc>Created with Sketch.</desc>
    <defs></defs>
    <g id="Clip" stroke="none" stroke-width="1" fill="none" fill-rule="evenodd">
        <path d="M10.3532204,37 C7.49292793,37 4.49071591,35.9657585 2.55290062,33.6904272 C-0.463328142,30.1465407 -0.824259379,25.8962802 1.56296786,22.0288178 C2.60283529,20.3439912 9.53849696,13.6064013 16.1850632,7.23873516 C17.0076711,6.45082337 17.568341,5.91353277 17.7277815,5.7547488 C19.238962,4.23814736 23.8206862,2.65717404 27.5587774,5.8792011 C30.9131602,9.09779499 30.3577466,13.1918464 28.1010503,15.5967798 C27.4659165,16.2739719 21.5000385,22.2107756 15.7479159,27.9295733 L14.192057,29.4770732 C13.4850873,30.1834473 12.0939252,30.9739339 10.5844967,30.9662093 C9.4473881,30.9438937 8.41014882,30.4598172 7.58403679,29.5663355 C5.36063028,27.0987469 7.00058969,24.3856868 8.17624435,23.2939398 L20.9542614,11.2855805 C21.4772613,10.7937794 22.3112578,10.8100869 22.8114804,11.3233454 C23.3152073,11.8366038 23.2968103,12.6511226 22.7729344,13.1429238 L9.98966101,25.1572911 C9.73210328,25.4044791 8.49775349,26.6902 9.54287719,27.8506104 C9.87402284,28.2076598 10.2253176,28.3836096 10.6370595,28.3913342 C10.646696,28.3921925 10.6572086,28.3921925 10.6677211,28.3921925 C11.3440292,28.3921925 12.03523,27.9536054 12.316441,27.6729441 L13.8766802,26.1211526 C17.0488453,22.9677889 25.4764145,14.5891453 26.1667392,13.8535893 C27.1409032,12.8159147 28.3130536,10.2058496 25.7707661,7.76572626 C23.0339963,5.40714066 19.9485598,7.21126982 19.6077777,7.55372821 C19.444833,7.71680364 18.8675182,8.27040178 18.0230092,9.07977086 C14.7571071,12.2082441 4.81835737,21.7284157 3.81177972,23.3617448 C2.01500795,26.272212 2.28483034,29.3543375 4.57131221,32.0407905 C6.95153107,34.8371049 11.9931798,35.0645522 14.4522429,33.2887467 C14.4794003,33.269006 14.5074338,33.2501235 14.5372194,33.2329577 C16.4864233,32.0416488 24.0843763,24.2251863 28.7160351,19.2634019 C29.2057452,18.7381274 30.0388656,18.7029374 30.5723781,19.1818642 C31.1085186,19.6616493 31.1453126,20.4753098 30.6556025,21.0005843 C29.4571706,22.2845887 18.9157008,33.5419427 15.9721839,35.3889865 C14.5021775,36.4352441 12.466245,37 10.3532204,37" id="6E-Copy-2" fill="#BDC8D1"></path>
    </g>
</svg>